<svg width="11" height="10" viewBox="0 0 11 10" fill="none" xmlns="http://www.w3.org/2000/svg">
<path d="M10.5001 4.99999C10.4964 4.60541 10.3374 4.22816 10.0576 3.94999L6.84006 0.724991C6.69954 0.585303 6.50945 0.506897 6.31131 0.506897C6.11317 0.506897 5.92308 0.585303 5.78256 0.724991C5.71226 0.794714 5.65647 0.877664 5.61839 0.969059C5.58032 1.06045 5.56071 1.15848 5.56071 1.25749C5.56071 1.3565 5.58032 1.45453 5.61839 1.54592C5.65647 1.63732 5.71226 1.72027 5.78256 1.78999L8.25006 4.24999H0.750061C0.551149 4.24999 0.360383 4.32901 0.219731 4.46966C0.0790788 4.61031 6.10352e-05 4.80107 6.10352e-05 4.99999C6.10352e-05 5.1989 0.0790788 5.38966 0.219731 5.53032C0.360383 5.67097 0.551149 5.74999 0.750061 5.74999H8.25006L5.78256 8.21748C5.64133 8.35772 5.5616 8.54831 5.56089 8.74733C5.56019 8.94635 5.63858 9.13751 5.77881 9.27873C5.91904 9.41996 6.10964 9.4997 6.30866 9.5004C6.50768 9.5011 6.69883 9.42272 6.84006 9.28248L10.0576 6.05749C10.3393 5.77747 10.4984 5.39717 10.5001 4.99999V4.99999Z" fill="#202727"/>
</svg>
